<?xml version="1.0" encoding="utf-8"?>
<!-- Svg Vector Icons : http://www.onlinewebfonts.com/icon -->
<!DOCTYPE svg PUBLIC "-//W3C//DTD SVG 1.1//EN" "http://www.w3.org/Graphics/SVG/1.1/DTD/svg11.dtd">
<svg version="1.1" xmlns="http://www.w3.org/2000/svg" xmlns:xlink="http://www.w3.org/1999/xlink" x="0px" y="0px" viewBox="0 0 256 256" enable-background="new 0 0 256 256" xml:space="preserve">
<metadata> Svg Vector Icons : http://www.onlinewebfonts.com/icon </metadata>
<g><g><g><path fill="#000000" d="M80.3,110.4c-45.9,97.4-47.3,100.5-46.9,102.9c0.4,3.2,2.3,6.5,5.7,9.9c10.8,10.7,32.7,18.2,63.4,21.8c11.7,1.4,39,1.4,50.7,0c21.6-2.5,38.7-7,51-13.2c10.5-5.4,17.2-12.1,18.2-18.6c0.3-2.3,0.1-3.1-6.1-15.9c-2.3-4.7-23-48.8-46.1-98C147.2,50.2,128.2,10,127.9,10C127.7,10,106.3,55.2,80.3,110.4z M127.9,139.7v83.4l-9.8-0.4c-16.2-0.6-30.9-2.7-44.5-6.1c-6.3-1.7-16.3-5-17-5.6c-0.2-0.1,3.4-8.1,7.9-17.7c8.2-17.8,37.4-81,53.9-117c5-11,9.2-20,9.3-20C127.9,56.3,127.9,93.8,127.9,139.7z"/></g></g></g>
</svg>